<?xml version="1.0" encoding="utf-8"?>
<!-- Generator: Adobe Adobe Illustrator 24.2.0, SVG Export Plug-In . SVG Version: 6.00 Build 0)  -->
<svg version="1.1" xmlns="http://www.w3.org/2000/svg" xmlns:xlink="http://www.w3.org/1999/xlink" x="0px" y="0px" width="500px"
	 height="500px" viewBox="0 0 500 500" style="enable-background:new 0 0 500 500;" xml:space="preserve">
<style type="text/css">
	.st0{fill:none;stroke:#FFFFFF;stroke-width:18;stroke-miterlimit:10;}
	.st1{fill:none;stroke:#FFFFFF;stroke-width:7;stroke-miterlimit:10;}
</style>
<g id="Libros">
</g>
<g id="Paredes">
	<g>
		<g>
			<path class="st0" d="M468.58,181.66L253.99,32.93c-2.4-1.66-5.58-1.66-7.98,0L31.42,181.66c-5.64,3.91-2.87,12.76,3.99,12.76
				H80.5l-4,232.57c0,16.26,13.18,29.43,29.43,29.43h97.57v-79.57c0-14.6,11.83-26.43,26.43-26.43h37.41
				c16.11,0,29.16,13.06,29.16,29.16v76.84h99.49c15.19,0,27.51-12.32,27.51-27.51V194.42h41.09
				C471.46,194.42,474.22,185.57,468.58,181.66z"/>
		</g>
	</g>
</g>
<g id="Layer_3">
</g>
</svg>
