<?xml version="1.0" encoding="utf-8"?>
<!-- Generator: Adobe Adobe Illustrator 24.2.0, SVG Export Plug-In . SVG Version: 6.00 Build 0)  -->
<svg version="1.1" xmlns="http://www.w3.org/2000/svg" xmlns:xlink="http://www.w3.org/1999/xlink" x="0px" y="0px" width="500px"
	 height="500px" viewBox="0 0 500 500" style="enable-background:new 0 0 500 500;" xml:space="preserve">
<style type="text/css">
	.st0{fill:none;stroke:#FFFFFF;stroke-width:18;stroke-miterlimit:10;}
	.st1{fill:none;stroke:#FFFFFF;stroke-width:7;stroke-miterlimit:10;}
	.st2{fill:#FFFFFF;stroke:#FFFFFF;stroke-width:7;stroke-miterlimit:10;}
	.st3{fill:none;stroke:#FFFFFF;stroke-width:10;stroke-miterlimit:10;}
	.st4{fill:#FFFFFF;}
	.st5{fill:none;stroke:#FFFFFF;stroke-width:6;stroke-linecap:round;stroke-miterlimit:10;}
	.st6{fill:#FFFFFF;stroke:#FFFFFF;stroke-width:6;stroke-linecap:round;stroke-miterlimit:10;}
	.st7{stroke:#FFFFFF;stroke-width:6;stroke-linecap:round;stroke-miterlimit:10;}
</style>
<g id="Libros">
</g>
<g id="Paredes">
</g>
<g id="Layer_3">
	<rect x="132" y="130" class="st0" width="45" height="288"/>
	<rect x="321" y="130" class="st0" width="45" height="288"/>
	<g>
		<g>
			<polygon class="st0" points="474,67 24,67 24,130.64 54.5,130.64 54.5,423.57 445.5,423.57 445.5,130.64 474,130.64 			"/>
		</g>
	</g>
	<path class="st0" d="M33,130h441H33z"/>
	<rect x="222" y="373" class="st1" width="27" height="45"/>
	<rect x="249" y="373" class="st1" width="27" height="45"/>
</g>
<g id="Layer_4">
	<rect x="78" y="220" class="st1" width="27" height="45"/>
	<rect x="69" y="256" class="st2" width="45" height="18"/>
	<rect x="213" y="220" class="st1" width="27" height="45"/>
	<rect x="204" y="256" class="st2" width="45" height="18"/>
	<rect x="393" y="220" class="st1" width="27" height="45"/>
	<rect x="384" y="256" class="st2" width="45" height="18"/>
	<rect x="267" y="220" class="st1" width="27" height="45"/>
	<rect x="258" y="256" class="st2" width="45" height="18"/>
	<rect x="78" y="148" class="st1" width="27" height="45"/>
	<rect x="69" y="184" class="st2" width="45" height="18"/>
	<rect x="213" y="148" class="st1" width="27" height="45"/>
	<rect x="204" y="184" class="st2" width="45" height="18"/>
	<rect x="393" y="148" class="st1" width="27" height="45"/>
	<rect x="384" y="184" class="st2" width="45" height="18"/>
	<rect x="267" y="148" class="st1" width="27" height="45"/>
	<rect x="258" y="184" class="st2" width="45" height="18"/>
	<rect x="78" y="292" class="st1" width="27" height="45"/>
	<rect x="69" y="328" class="st2" width="45" height="18"/>
	<rect x="213" y="292" class="st1" width="27" height="45"/>
	<rect x="204" y="328" class="st2" width="45" height="18"/>
	<rect x="393" y="292" class="st1" width="27" height="45"/>
	<rect x="384" y="328" class="st2" width="45" height="18"/>
	<rect x="267" y="292" class="st1" width="27" height="45"/>
	<rect x="258" y="328" class="st2" width="45" height="18"/>
</g>
<g id="Layer_6">
</g>
<g id="Layer_7">
</g>
<g id="Layer_8">
</g>
<g id="Layer_5">
	<g>
		<g>
			<path class="st2" d="M140.67,391.66c-1.82-10.6-11.05-18.66-22.17-18.66c-1.91,0-3.77,0.24-5.54,0.69
				C106.41,367.72,97.2,364,87,364c-14.65,0-27.24,7.66-32.86,18.65C42.04,385.33,33,396.1,33,409c0,14.91,12.09,27,27,27
				c8.24,0,15.61-3.69,20.56-9.51C82.65,426.82,84.8,427,87,427c4.86,0,9.49-0.85,13.72-2.37C106.91,431.42,118.6,436,132,436
				c19.88,0,36-10.07,36-22.5C168,402.94,156.36,394.09,140.67,391.66z"/>
		</g>
	</g>
	<g>
		<g>
			<path class="st2" d="M452.86,382.65C447.24,371.66,434.65,364,420,364c-10.2,0-19.41,3.72-25.96,9.69
				c-1.77-0.45-3.63-0.69-5.54-0.69c-11.12,0-20.34,8.06-22.17,18.66C350.64,394.09,339,402.94,339,413.5
				c0,12.43,16.12,22.5,36,22.5c13.4,0,25.09-4.58,31.28-11.37c4.23,1.53,8.86,2.37,13.72,2.37c2.2,0,4.35-0.18,6.44-0.51
				c4.95,5.82,12.32,9.51,20.56,9.51c14.91,0,27-12.09,27-27C474,396.1,464.96,385.33,452.86,382.65z"/>
		</g>
	</g>
</g>
</svg>
