<?xml version="1.0" encoding="utf-8"?>
<!-- Generator: Adobe Adobe Illustrator 24.2.0, SVG Export Plug-In . SVG Version: 6.00 Build 0)  -->
<svg version="1.1" xmlns="http://www.w3.org/2000/svg" xmlns:xlink="http://www.w3.org/1999/xlink" x="0px" y="0px" width="500px"
	 height="500px" viewBox="0 0 500 500" style="enable-background:new 0 0 500 500;" xml:space="preserve">
<style type="text/css">
	.st0{fill:none;stroke:#FFFFFF;stroke-width:18;stroke-miterlimit:10;}
	.st1{fill:none;stroke:#FFFFFF;stroke-width:7;stroke-miterlimit:10;}
	.st2{fill:none;stroke:#000000;stroke-width:18;stroke-miterlimit:10;}
</style>
<g id="Libros">
</g>
<g id="Paredes">
</g>
<g id="Layer_3">
	<g>
		<g>
			<path class="st2" d="M431,362.84c-18.13-43.54-66.9-106.13-125.28-133.42c29.91-19.12,49.78-52.91,49.78-91.42
				c0-59.65-47.68-108-106.5-108S142.5,78.35,142.5,138c0,39.09,20.48,73.33,51.15,92.29C140.74,258.34,102.21,321.1,81,362.84
				c-30.95,60.89,21.35,86.61,75.56,97.4c-1-5.07-1.56-10.57-1.56-16.31c0-25.41,10.75-46,24-46s24,20.59,24,46
				c0,8.07-1.09,15.66-2.99,22.25c27.76,2.33,48.99,1.66,48.99,1.66s26.55,0.73,59.7-2.71c-1.72-6.35-2.7-13.55-2.7-21.2
				c0-25.41,10.75-46,24-46s24,20.59,24,46c0,4.96-0.42,9.74-1.17,14.21C405.93,446.27,454.86,420.14,431,362.84z"/>
		</g>
	</g>
</g>
<g id="Layer_4">
</g>
</svg>
