<?xml version="1.0" encoding="utf-8"?>
<!-- Generator: Adobe Adobe Illustrator 24.2.0, SVG Export Plug-In . SVG Version: 6.00 Build 0)  -->
<svg version="1.1" xmlns="http://www.w3.org/2000/svg" xmlns:xlink="http://www.w3.org/1999/xlink" x="0px" y="0px" width="500px"
	 height="500px" viewBox="0 0 500 500" style="enable-background:new 0 0 500 500;" xml:space="preserve">
<style type="text/css">
	.st0{fill:none;stroke:#FFFFFF;stroke-width:18;stroke-miterlimit:10;}
	.st1{fill:none;stroke:#FFFFFF;stroke-width:7;stroke-miterlimit:10;}
	.st2{fill:#FFFFFF;stroke:#FFFFFF;stroke-width:7;stroke-miterlimit:10;}
	.st3{fill:none;stroke:#FFFFFF;stroke-width:10;stroke-miterlimit:10;}
	.st4{fill:#FFFFFF;}
	.st5{fill:none;stroke:#FFFFFF;stroke-width:6;stroke-linecap:round;stroke-miterlimit:10;}
	.st6{fill:#FFFFFF;stroke:#FFFFFF;stroke-width:6;stroke-linecap:round;stroke-miterlimit:10;}
	.st7{stroke:#FFFFFF;stroke-width:6;stroke-linecap:round;stroke-miterlimit:10;}
</style>
<g id="Libros">
</g>
<g id="Paredes">
</g>
<g id="Layer_3">
</g>
<g id="Layer_4">
</g>
<g id="Layer_6">
</g>
<g id="Layer_7">
	<g>
		<g>
			<path class="st3" d="M426,79.78V53.89l-36.73-7.35c-35.17-7.03-71.38-7.03-106.55,0L246,53.89l-49.32-9.86
				c-26.86-5.37-54.51-5.37-81.37,0L66,53.89v25.88c-10.69,5.58-18,16.76-18,29.65v311.14C48,439.03,62.97,454,81.43,454h329.14
				c18.46,0,33.43-14.97,33.43-33.43V109.43C444,96.53,436.69,85.35,426,79.78z"/>
		</g>
	</g>
	<path class="st3" d="M66,404.89v-342l49.32-9.86c26.86-5.37,54.51-5.37,81.37,0L246,62.89v342H66z"/>
	<path class="st3" d="M246,404.89v-342l36.73-7.35c35.17-7.03,71.38-7.03,106.55,0L426,62.89v342H246z"/>
	<path class="st3" d="M66,404.89v-342l49.32-9.86c26.86-5.37,54.51-5.37,81.37,0L246,62.89v342H66z"/>
	<rect x="282" y="283" class="st3" width="117" height="90"/>
	<g>
		<path class="st4" d="M101.85,193.49c4.29-2.63,9.01-4.51,13.82-5.98c4.81-1.47,9.74-2.56,14.69-3.41
			c4.96-0.82,9.96-1.41,14.97-1.82c5.01-0.38,10.04-0.58,15.07-0.64c5.03-0.05,10.07-0.03,15.11,0.16
			c5.04,0.21,10.07,0.75,15.04,1.66c4.97,0.91,9.9,2.12,14.72,3.71c4.81,1.59,9.55,3.56,13.84,6.3c0.14,0.09,0.18,0.28,0.09,0.42
			c-0.07,0.11-0.2,0.16-0.32,0.13l-0.01,0c-9.76-2.23-19.43-3.54-29.2-4.63l-14.64-1.67c-4.88-0.59-9.8-1.08-14.72-1.29
			c-4.93-0.22-9.86-0.28-14.79-0.18c-4.93,0.08-9.86,0.32-14.77,0.81c-4.91,0.46-9.81,1.15-14.62,2.23
			c-4.8,1.1-9.55,2.53-13.99,4.71l-0.01,0c-0.15,0.07-0.33,0.01-0.4-0.14C101.67,193.73,101.72,193.57,101.85,193.49z"/>
	</g>
	<g>
		<path class="st4" d="M101.85,112.49c4.29-2.63,9.01-4.51,13.82-5.98c4.81-1.47,9.74-2.56,14.69-3.41
			c4.96-0.82,9.96-1.41,14.97-1.82c5.01-0.38,10.04-0.58,15.07-0.64c5.03-0.05,10.07-0.03,15.11,0.16
			c5.04,0.21,10.07,0.75,15.04,1.66c4.97,0.91,9.9,2.12,14.72,3.71c4.81,1.59,9.55,3.56,13.84,6.3c0.14,0.09,0.18,0.28,0.09,0.42
			c-0.07,0.11-0.2,0.16-0.32,0.13l-0.01,0c-9.76-2.23-19.43-3.54-29.2-4.63l-14.64-1.67c-4.88-0.59-9.8-1.08-14.72-1.29
			c-4.93-0.22-9.86-0.28-14.79-0.18c-4.93,0.08-9.86,0.32-14.77,0.81c-4.91,0.46-9.81,1.15-14.62,2.23
			c-4.8,1.1-9.55,2.53-13.99,4.71l-0.01,0c-0.15,0.07-0.33,0.01-0.4-0.14C101.67,112.73,101.72,112.57,101.85,112.49z"/>
	</g>
	<g>
		<path class="st4" d="M92.85,256.49c4.29-2.63,9.01-4.51,13.82-5.98c4.81-1.47,9.74-2.56,14.69-3.41
			c4.96-0.82,9.96-1.41,14.97-1.82c5.01-0.38,10.04-0.58,15.07-0.64c5.03-0.05,10.07-0.03,15.11,0.16
			c5.04,0.21,10.07,0.75,15.04,1.66c4.97,0.91,9.9,2.12,14.72,3.71c4.81,1.59,9.55,3.56,13.84,6.3c0.14,0.09,0.18,0.28,0.09,0.42
			c-0.07,0.11-0.2,0.16-0.32,0.13l-0.01,0c-9.76-2.23-19.43-3.54-29.2-4.63l-14.64-1.67c-4.88-0.59-9.8-1.08-14.72-1.29
			c-4.93-0.22-9.86-0.28-14.79-0.18c-4.93,0.08-9.86,0.32-14.77,0.81c-4.91,0.46-9.81,1.15-14.62,2.23
			c-4.8,1.1-9.55,2.53-13.99,4.71l-0.01,0c-0.15,0.07-0.33,0.01-0.4-0.14C92.67,256.73,92.72,256.57,92.85,256.49z"/>
	</g>
	<g>
		<path class="st4" d="M281.85,166.49c4.29-2.63,9.01-4.51,13.82-5.98c4.81-1.47,9.74-2.56,14.69-3.41
			c4.96-0.82,9.96-1.41,14.97-1.82c5.01-0.38,10.04-0.58,15.07-0.64c5.03-0.05,10.07-0.03,15.11,0.16
			c5.04,0.21,10.07,0.75,15.04,1.66c4.97,0.91,9.9,2.12,14.72,3.71c4.81,1.59,9.55,3.56,13.84,6.3c0.14,0.09,0.18,0.28,0.09,0.42
			c-0.07,0.11-0.2,0.16-0.32,0.13l-0.01,0c-9.76-2.23-19.43-3.54-29.2-4.63l-14.64-1.67c-4.88-0.59-9.8-1.08-14.72-1.29
			c-4.93-0.22-9.86-0.28-14.79-0.18c-4.93,0.08-9.86,0.32-14.77,0.81c-4.91,0.46-9.81,1.15-14.62,2.23
			c-4.8,1.1-9.55,2.53-13.99,4.71l-0.01,0c-0.15,0.07-0.33,0.01-0.4-0.14C281.67,166.73,281.72,166.57,281.85,166.49z"/>
	</g>
	<g>
		<path class="st4" d="M281.85,85.49c4.29-2.63,9.01-4.51,13.82-5.98c4.81-1.47,9.74-2.56,14.69-3.41
			c4.96-0.82,9.96-1.41,14.97-1.82c5.01-0.38,10.04-0.58,15.07-0.64c5.03-0.05,10.07-0.03,15.11,0.16
			c5.04,0.21,10.07,0.75,15.04,1.66c4.97,0.91,9.9,2.12,14.72,3.71c4.81,1.59,9.55,3.56,13.84,6.3c0.14,0.09,0.18,0.28,0.09,0.42
			c-0.07,0.11-0.2,0.16-0.32,0.13l-0.01,0c-9.76-2.23-19.43-3.54-29.2-4.63l-14.64-1.67c-4.88-0.59-9.8-1.08-14.72-1.29
			c-4.93-0.22-9.86-0.28-14.79-0.18c-4.93,0.08-9.86,0.32-14.77,0.81c-4.91,0.46-9.81,1.15-14.62,2.23
			c-4.8,1.1-9.55,2.53-13.99,4.71l-0.01,0c-0.15,0.07-0.33,0.01-0.4-0.14C281.67,85.73,281.72,85.57,281.85,85.49z"/>
	</g>
	<g>
		<path class="st4" d="M272.85,229.49c4.29-2.63,9.01-4.51,13.82-5.98c4.81-1.47,9.74-2.56,14.69-3.41
			c4.96-0.82,9.96-1.41,14.97-1.82c5.01-0.38,10.04-0.58,15.07-0.64c5.03-0.05,10.07-0.03,15.11,0.16
			c5.04,0.21,10.07,0.75,15.04,1.66c4.97,0.91,9.9,2.12,14.72,3.71c4.81,1.59,9.55,3.56,13.84,6.3c0.14,0.09,0.18,0.28,0.09,0.42
			c-0.07,0.11-0.2,0.16-0.32,0.13l-0.01,0c-9.76-2.23-19.43-3.54-29.2-4.63l-14.64-1.67c-4.88-0.59-9.8-1.08-14.72-1.29
			c-4.93-0.22-9.86-0.28-14.79-0.18c-4.93,0.08-9.86,0.32-14.77,0.81c-4.91,0.46-9.81,1.15-14.62,2.23
			c-4.8,1.1-9.55,2.53-13.99,4.71l-0.01,0c-0.15,0.07-0.33,0.01-0.4-0.14C272.67,229.73,272.72,229.57,272.85,229.49z"/>
	</g>
	<g>
		<path class="st4" d="M92.85,328.49c4.29-2.63,9.01-4.51,13.82-5.98c4.81-1.47,9.74-2.56,14.69-3.41
			c4.96-0.82,9.96-1.41,14.97-1.82c5.01-0.38,10.04-0.58,15.07-0.64c5.03-0.05,10.07-0.03,15.11,0.16
			c5.04,0.21,10.07,0.75,15.04,1.66c4.97,0.91,9.9,2.12,14.72,3.71c4.81,1.59,9.55,3.56,13.84,6.3c0.14,0.09,0.18,0.28,0.09,0.42
			c-0.07,0.11-0.2,0.16-0.32,0.13l-0.01,0c-9.76-2.23-19.43-3.54-29.2-4.63l-14.64-1.67c-4.88-0.59-9.8-1.08-14.72-1.29
			c-4.93-0.22-9.86-0.28-14.79-0.18c-4.93,0.08-9.86,0.32-14.77,0.81c-4.91,0.46-9.81,1.15-14.62,2.23
			c-4.8,1.1-9.55,2.53-13.99,4.71l-0.01,0c-0.15,0.07-0.33,0.01-0.4-0.14C92.67,328.73,92.72,328.57,92.85,328.49z"/>
	</g>
</g>
<g id="Layer_8">
</g>
<g id="Layer_5">
</g>
</svg>
