<?xml version="1.0" encoding="utf-8"?>
<!-- Generator: Adobe Adobe Illustrator 24.2.0, SVG Export Plug-In . SVG Version: 6.00 Build 0)  -->
<svg version="1.1" xmlns="http://www.w3.org/2000/svg" xmlns:xlink="http://www.w3.org/1999/xlink" x="0px" y="0px" width="500px"
	 height="500px" viewBox="0 0 500 500" style="enable-background:new 0 0 500 500;" xml:space="preserve">
<style type="text/css">
	.st0{fill:none;stroke:#FFFFFF;stroke-width:18;stroke-miterlimit:10;}
	.st1{fill:none;stroke:#FFFFFF;stroke-width:7;stroke-miterlimit:10;}
	.st2{fill:#FFFFFF;stroke:#FFFFFF;stroke-width:7;stroke-miterlimit:10;}
	.st3{fill:none;stroke:#FFFFFF;stroke-width:10;stroke-miterlimit:10;}
	.st4{fill:#FFFFFF;}
	.st5{fill:none;stroke:#FFFFFF;stroke-width:6;stroke-linecap:round;stroke-miterlimit:10;}
	.st6{fill:#FFFFFF;stroke:#FFFFFF;stroke-width:6;stroke-linecap:round;stroke-miterlimit:10;}
	.st7{stroke:#FFFFFF;stroke-width:6;stroke-linecap:round;stroke-miterlimit:10;}
</style>
<g id="Libros">
</g>
<g id="Paredes">
</g>
<g id="Layer_3">
</g>
<g id="Layer_4">
</g>
<g id="Layer_6">
	<g>
		<g>
			<path class="st0" d="M463.72,303.01c-12.5-33.23-46.14-81.01-86.4-101.83c20.63-14.59,34.34-40.37,34.34-69.76
				c0-45.52-32.88-82.42-73.44-82.42c-37.57,0-68.53,31.67-72.89,72.51c-2.66-0.33-5.37-0.51-8.11-0.51
				c-9.05,0-17.72,1.85-25.72,5.21C229.1,83.12,197.21,49,158.22,49c-40.56,0-73.44,36.9-73.44,82.42
				c0,29.83,14.12,55.96,35.27,70.43C83.56,223.26,57,271.16,42.37,303.01c-21.34,46.47,14.72,66.1,52.1,74.33
				c-0.69-3.87-1.07-8.06-1.07-12.45c0-19.39,7.41-35.11,16.55-35.11s16.55,15.72,16.55,35.11c0,6.16-0.75,11.95-2.06,16.98
				c4.96,0.46,9.62,0.77,13.79,0.97c-13.99,40.88,20.04,58.74,55.25,66.5c-0.69-3.87-1.07-8.06-1.07-12.45
				c0-19.39,7.41-35.11,16.55-35.11s16.55,15.72,16.55,35.11c0,6.16-0.75,11.95-2.06,16.98c19.14,1.77,33.78,1.27,33.78,1.27
				s18.31,0.56,41.17-2.07c-1.19-4.84-1.86-10.34-1.86-16.18c0-19.39,7.41-35.11,16.55-35.11c9.14,0,16.55,15.72,16.55,35.11
				c0,3.79-0.29,7.43-0.81,10.85c36.62-9.06,70.36-29,53.91-72.73c-1.44-3.84-3.18-7.88-5.17-12.04
				c0.47-18.49,7.69-33.18,16.52-33.18c9.14,0,16.55,15.72,16.55,35.11c0,3.79-0.29,7.43-0.81,10.85
				C446.43,366.69,480.17,346.74,463.72,303.01z"/>
		</g>
	</g>
	<g>
		<g>
			<path class="st0" d="M382.72,375.01c-12.5-33.23-46.14-81.01-86.4-101.83c20.63-14.59,34.34-40.37,34.34-69.76
				c0-45.52-32.88-82.42-73.44-82.42s-73.44,36.9-73.44,82.42c0,29.83,14.12,55.96,35.27,70.43
				c-36.49,21.41-63.05,69.31-77.68,101.16c-21.34,46.47,14.72,66.1,52.1,74.33c-0.69-3.87-1.07-8.06-1.07-12.45
				c0-19.39,7.41-35.11,16.55-35.11s16.55,15.72,16.55,35.11c0,6.16-0.75,11.95-2.06,16.98c19.14,1.77,33.78,1.27,33.78,1.27
				s18.31,0.56,41.17-2.07c-1.19-4.84-1.86-10.34-1.86-16.18c0-19.39,7.41-35.11,16.55-35.11c9.14,0,16.55,15.72,16.55,35.11
				c0,3.79-0.29,7.43-0.81,10.85C365.43,438.69,399.17,418.74,382.72,375.01z"/>
		</g>
	</g>
</g>
<g id="Layer_7">
</g>
<g id="Layer_8">
</g>
<g id="Layer_5">
</g>
</svg>
