<?xml version="1.0" encoding="utf-8"?>
<!-- Generator: Adobe Adobe Illustrator 24.2.0, SVG Export Plug-In . SVG Version: 6.00 Build 0)  -->
<svg version="1.1" xmlns="http://www.w3.org/2000/svg" xmlns:xlink="http://www.w3.org/1999/xlink" x="0px" y="0px" width="500px"
	 height="500px" viewBox="0 0 500 500" style="enable-background:new 0 0 500 500;" xml:space="preserve">
<style type="text/css">
	.st0{fill:none;stroke:#FFFFFF;stroke-width:18;stroke-miterlimit:10;}
	.st1{fill:none;stroke:#FFFFFF;stroke-width:7;stroke-miterlimit:10;}
	.st2{fill:#FFFFFF;stroke:#FFFFFF;stroke-width:7;stroke-miterlimit:10;}
	.st3{fill:none;stroke:#FFFFFF;stroke-width:10;stroke-miterlimit:10;}
	.st4{fill:#FFFFFF;}
	.st5{fill:none;stroke:#FFFFFF;stroke-width:24;stroke-linecap:round;stroke-miterlimit:10;}
	.st6{fill:none;stroke:#FFFFFF;stroke-width:36;stroke-linecap:round;stroke-miterlimit:10;}
	.st7{fill:#FFFFFF;stroke:#FFFFFF;stroke-width:6;stroke-linecap:round;stroke-miterlimit:10;}
	.st8{stroke:#FFFFFF;stroke-width:17;stroke-linecap:round;stroke-miterlimit:10;}
	.st9{fill:#FFFFFF;stroke:#FFFFFF;stroke-width:19;stroke-linecap:round;stroke-miterlimit:10;}
	.st10{stroke:#FFFFFF;stroke-width:6;stroke-linecap:round;stroke-miterlimit:10;}
	.st11{fill:none;stroke:#000000;stroke-width:26;stroke-miterlimit:10;}
	.st12{fill:none;stroke:#000000;stroke-width:26;stroke-linecap:round;stroke-miterlimit:10;}
	.st13{fill:none;stroke:#FFFFFF;stroke-width:26;stroke-miterlimit:10;}
</style>
<g id="Libros">
</g>
<g id="Paredes">
</g>
<g id="Layer_3">
</g>
<g id="Layer_4">
</g>
<g id="Layer_6">
</g>
<g id="Layer_7">
</g>
<g id="Layer_8">
</g>
<g id="Layer_5">
</g>
<g id="Layer_9">
</g>
<g id="Layer_10">
</g>
<g id="Layer_11">
	<path class="st13" d="M257.49,285.23L27.87,153.45c-1.55-0.89-1.56-3.1-0.02-3.88l204.08-99.02c14.86-7.21,32.59-6.59,47.55,1.66
		l193.7,106.86c0.14,0.08,0.15,0.28,0.02,0.37L272.07,285.11C267.71,287.83,262.11,287.88,257.49,285.23z"/>
	<g>
		<g>
			<path class="st0" d="M441.33,228.45l-145.05,81.62c-18.25,10.27-41.46,10.49-59.96,0.58l-91.26-48.89v48.43h-41V239.8
				L84.6,229.38c-15.52-8.31-35.3,1.61-35.3,17.71v146.45c0,15.6,13.26,28.69,30.73,30.33l175.23,16.46
				c7.68,0.72,15.42,0.7,23.1-0.06l153.32-15.17c23.7-2.34,41.62-20.14,41.62-41.32v-139.7C473.3,229.5,455.19,220.65,441.33,228.45
				z"/>
		</g>
	</g>
</g>
</svg>
