<?xml version="1.0" encoding="utf-8"?>
<!-- Generator: Adobe Adobe Illustrator 24.2.0, SVG Export Plug-In . SVG Version: 6.00 Build 0)  -->
<svg version="1.1" xmlns="http://www.w3.org/2000/svg" xmlns:xlink="http://www.w3.org/1999/xlink" x="0px" y="0px"
	 viewBox="0 0 500 500" style="enable-background:new 0 0 500 500;" xml:space="preserve">
<style type="text/css">
	.st0{fill:none;stroke:#FFFFFF;stroke-width:18;stroke-miterlimit:10;}
</style>
<g id="Libros">
	<rect x="32" y="155.92" class="st0" width="81.98" height="318.08"/>
	<rect x="113.98" y="56" class="st0" width="77.32" height="418"/>
	<rect x="191.31" y="122" class="st0" width="57.76" height="352"/>
	<rect x="249.07" y="155.92" class="st0" width="83.85" height="318.08"/>
	<rect x="332.91" y="133.92" class="st0" width="57.76" height="340.08"/>
	<rect x="390.68" y="56" class="st0" width="77.32" height="418"/>
	<rect x="113.98" y="94.1" class="st0" width="77.32" height="39.81"/>
	<rect x="113.98" y="412.64" class="st0" width="77.32" height="35.29"/>
	<rect x="193.17" y="159.19" class="st0" width="54.97" height="41"/>
	<rect x="191.31" y="366.35" class="st0" width="56.83" height="43"/>
	<rect x="249.07" y="200.19" class="st0" width="83.85" height="44.25"/>
	<rect x="32" y="225.19" class="st0" width="81.98" height="49"/>
	<rect x="34.33" y="366.35" class="st0" width="77.32" height="43"/>
	<rect x="249.07" y="383.02" class="st0" width="83.85" height="40"/>
	<rect x="333.85" y="185.77" class="st0" width="56.83" height="43"/>
	<rect x="390.68" y="91.35" class="st0" width="77.32" height="42.56"/>
</g>
<g id="Layer_2">
</g>
</svg>
