<?xml version="1.0" encoding="utf-8"?>
<!-- Generator: Adobe Adobe Illustrator 24.2.0, SVG Export Plug-In . SVG Version: 6.00 Build 0)  -->
<svg version="1.1" xmlns="http://www.w3.org/2000/svg" xmlns:xlink="http://www.w3.org/1999/xlink" x="0px" y="0px" width="500px"
	 height="500px" viewBox="0 0 500 500" style="enable-background:new 0 0 500 500;" xml:space="preserve">
<style type="text/css">
	.st0{fill:none;stroke:#FFFFFF;stroke-width:18;stroke-miterlimit:10;}
	.st1{fill:none;stroke:#FFFFFF;stroke-width:7;stroke-miterlimit:10;}
</style>
<g id="Libros">
	<rect x="31.18" y="153.1" class="st0" width="80.38" height="270.9"/>
	<rect x="128.59" y="68" class="st0" width="65" height="356"/>
	<rect x="210" y="124.21" class="st0" width="80" height="299.79"/>
	<rect x="306.18" y="157.52" class="st0" width="84.62" height="270.9"/>
	<rect x="408.82" y="68" class="st0" width="60" height="356"/>
	<rect x="149.59" y="94.42" class="st1" width="23" height="84.1"/>
	<rect x="211.88" y="155.88" class="st0" width="78.12" height="34.92"/>
	<rect x="210" y="332.32" class="st0" width="80" height="36.62"/>
	<rect x="31.18" y="212.09" class="st0" width="80.38" height="41.73"/>
	<rect x="31.18" y="332.32" class="st0" width="78.03" height="36.62"/>
	<rect x="306.18" y="350.94" class="st0" width="84.62" height="34.07"/>
	<rect x="31.18" y="428.42" class="st0" width="437.65" height="48"/>
	<rect x="427.32" y="94.42" class="st1" width="23" height="84.1"/>
	<rect x="336.98" y="178.52" class="st1" width="23" height="43"/>
</g>
<g id="Paredes">
</g>
<g id="Layer_3">
</g>
</svg>
